HIERARCHY
ROOT Hips
{
  OFFSET 53.0411 96.1731 10.2046
  CHANNELS 6 Xposition Yposition Zposition Zrotation Xrotation Yrotation
  JOINT spine
  {
    OFFSET 0 8.13249 0.467659
    CHANNELS 3 Zrotation Xrotation Yrotation
    JOINT spine1
    {
      OFFSET 0 10.3498 0
      CHANNELS 3 Zrotation Xrotation Yrotation
      JOINT spine2
      {
        OFFSET 0 9.91699 0
        CHANNELS 3 Zrotation Xrotation Yrotation
        JOINT Neck
        {
          OFFSET 0 25.461 1.2139
          CHANNELS 3 Zrotation Xrotation Yrotation
          JOINT Head
          {
            OFFSET 0 7.69245 0
            CHANNELS 3 Zrotation Xrotation Yrotation
            End Site
            {
              OFFSET 0 18.62 -6.14063
            }
          }
        }
        JOINT RightShoulder
        {
          OFFSET -4.17575 10.7096 -0.581445
          CHANNELS 3 Zrotation Xrotation Yrotation
          JOINT RightArm
          {
            OFFSET 0 14.0466 0
            CHANNELS 3 Zrotation Xrotation Yrotation
            JOINT RightArmRoll
            {
              OFFSET 0 7.09098 0
              CHANNELS 3 Zrotation Xrotation Yrotation
              JOINT RightForeArm
              {
                OFFSET 0 20.6535 0
                CHANNELS 3 Zrotation Xrotation Yrotation
                JOINT RightForeArmRoll
                {
                  OFFSET 0 7.95718 0
                  CHANNELS 3 Zrotation Xrotation Yrotation
                  JOINT RightHand
                  {
                    OFFSET 0 15.9683 0
                    CHANNELS 3 Zrotation Xrotation Yrotation
                    End Site
                    {
                      OFFSET 0 0 0
                    }
                  }
                }
              }
            }
          }
        }
        JOINT LeftShoulder
        {
          OFFSET 4.17575 10.7096 -0.581445
          CHANNELS 3 Zrotation Xrotation Yrotation
          JOINT LeftArm
          {
            OFFSET 0 14.0466 0
            CHANNELS 3 Zrotation Xrotation Yrotation
            JOINT LeftArmRoll
            {
              OFFSET 0 7.09098 0
              CHANNELS 3 Zrotation Xrotation Yrotation
              JOINT LeftForeArm
              {
                OFFSET 0 20.6535 0
                CHANNELS 3 Zrotation Xrotation Yrotation
                JOINT LeftForeArmRoll
                {
                  OFFSET 0 7.95718 0
                  CHANNELS 3 Zrotation Xrotation Yrotation
                  JOINT LeftHand
                  {
                    OFFSET 0 15.9683 0
                    CHANNELS 3 Zrotation Xrotation Yrotation
                    End Site
                    {
                      OFFSET 0 0 0
                    }
                  }
                }
              }
            }
          }
        }
      }
    }
  }
  JOINT RightUpLeg
  {
    OFFSET -7.20834 -1.32182 -1.10884
    CHANNELS 3 Zrotation Xrotation Yrotation
    JOINT RightUpLegRoll
    {
      OFFSET 0 18.7238 0
      CHANNELS 3 Zrotation Xrotation Yrotation
      JOINT RightLeg
      {
        OFFSET 0 -23.1866 0
        CHANNELS 3 Zrotation Xrotation Yrotation
        JOINT RightLegRoll
        {
          OFFSET 0 23.2624 0
          CHANNELS 3 Zrotation Xrotation Yrotation
          JOINT RightFoot
          {
            OFFSET 0 19.3621 0
            CHANNELS 3 Zrotation Xrotation Yrotation
            JOINT RightToeBase
            {
              OFFSET 0 16.1857 0
              CHANNELS 3 Zrotation Xrotation Yrotation
              End Site
              {
                OFFSET 0.00686052 7.83862 -0.903522
              }
            }
          }
        }
      }
    }
  }
  JOINT LeftUpLeg
  {
    OFFSET 7.20834 -1.32182 -1.10884
    CHANNELS 3 Zrotation Xrotation Yrotation
    JOINT LeftUpLegRoll
    {
      OFFSET 0 18.7239 0
      CHANNELS 3 Zrotation Xrotation Yrotation
      JOINT LeftLeg
      {
        OFFSET 0 23.1865 0
        CHANNELS 3 Zrotation Xrotation Yrotation
        JOINT LeftLegRoll
        {
          OFFSET 0 23.4775 0
          CHANNELS 3 Zrotation Xrotation Yrotation
          JOINT LeftFoot
          {
            OFFSET 0 19.147 0
            CHANNELS 3 Zrotation Xrotation Yrotation
            JOINT LeftToeBase
            {
              OFFSET 0 16.1857 0
              CHANNELS 3 Zrotation Xrotation Yrotation
              End Site
              {
                OFFSET -0.0307459 7.83862 -0.903522
              }
            }
          }
        }
      }
    }
  }
}
MOTION
Frames: 11
Frame Time: 0.00208333
53.0406 96.1415 9.06017 -0.104362 -4.89553 1.42566 0.279277 -1.54386 0.120167 0.555169 0.931382 0.212148 0.552918 2.57641 0.203029 -7.655 13.7436 0.804838 -2.9425 -3.81707 -1.68598 58.8035 -9.63026 -5.98758 122.648 28.3566 -35.0958 -1.49389e-006 -9.42254e-006 -3.86711e-006 -173.181 64.7601 157.17 -6.68363e-006 3.17603e-006 -3 8.02919 -4.95144 0.697662 -63.726 -4.65671 3.21354 -125.338 42.0902 23.692 -1.07811e-005 2.88116e-006 2.97338e-006 170.083 83.7072 -164.519 6.1478e-006 1.36873e-006 3.00196 -8.02898 -4.95146 -0.697668 172.601 0.0210332 4.06188 180 7.01567e-015 179.012 178.473 10.5031 179.635 4.20411e-006 6.49167e-006 -0.0113693 -16.6061 68.3592 19.7968 8.13649 25.2327 -3.48773 -173.566 -0.53158 -1.68406 4.54188e-006 -4.6773e-006 -0.97256 -1.33551 -11.77 0.437981 5.314e-006 -2.06126e-007 -0.106328 18.3519 70.4462 -21.6347 -8.1366 25.2342 3.48569 
53.0384 96.1433 9.06328 -0.105053 -4.90033 1.42427 0.279413 -1.54447 0.11972 0.554684 0.93192 0.21135 0.552442 2.57695 0.202216 -7.64931 13.7415 0.79865 -2.92237 -3.78434 -1.68698 58.8086 -9.62923 -5.98698 122.792 28.3548 -35.3876 -1.49389e-006 -9.42254e-006 -3.86711e-006 -173.12 64.8006 157.071 -6.68363e-006 3.17603e-006 -3 8.02919 -4.95144 0.697662 -63.7151 -4.66289 3.2163 -125.453 42.0665 24.0211 -1.07811e-005 2.88116e-006 2.97338e-006 169.539 83.7401 -163.935 6.1478e-006 1.36873e-006 3.00195 -8.02898 -4.95146 -0.697668 172.603 0.0110758 4.06127 180 7.01567e-015 179.012 178.473 10.4974 179.635 4.2041e-006 6.49167e-006 -0.0111242 -16.6092 68.3588 19.7969 8.13649 25.2327 -3.48773 -173.565 -0.541325 -1.68504 4.54188e-006 -4.6773e-006 -0.97269 -1.33496 -11.7657 0.438031 5.314e-006 -2.06126e-007 -0.106311 18.3554 70.4473 -21.6346 -8.1366 25.2342 3.48569 
53.0378 96.1455 9.06598 -0.105861 -4.90501 1.42261 0.279541 -1.545 0.119272 0.554276 0.932396 0.210534 0.552045 2.57743 0.201385 -7.6436 13.7401 0.792368 -2.90326 -3.75304 -1.68829 58.813 -9.62743 -5.98589 122.934 28.3512 -35.6869 -1.49389e-006 -9.42254e-006 -3.86711e-006 -173.055 64.8439 156.968 -6.68363e-006 3.17603e-006 -3 8.02919 -4.95144 0.697662 -63.7037 -4.66958 3.21932 -125.568 42.0444 24.3499 -1.07811e-005 2.88116e-006 2.97338e-006 169.013 83.7695 -163.37 6.1478e-006 1.36873e-006 3.00195 -8.02898 -4.95146 -0.697668 172.605 0.00163244 4.06047 180 7.01567e-015 179.012 178.473 10.4923 179.635 4.20411e-006 6.49167e-006 -0.0108798 -16.6123 68.3587 19.7972 8.13649 25.2327 -3.48773 -173.564 -0.550614 -1.68615 4.54188e-006 -4.6773e-006 -0.972819 -1.33444 -11.7622 0.438058 5.314e-006 -2.06126e-007 -0.106295 18.3592 70.4488 -21.6349 -8.1366 25.2342 3.48569 
53.0376 96.1463 9.07147 -0.106773 -4.90951 1.42064 0.27965 -1.54543 0.118822 0.553945 0.932793 0.209699 0.551723 2.57782 0.200538 -7.63781 13.7395 0.785977 -2.8854 -3.72336 -1.68995 58.8166 -9.62472 -5.98421 123.073 28.3459 -35.9935 -1.49389e-006 -9.42254e-006 -3.86711e-006 -172.986 64.89 156.86 -6.68363e-006 3.17603e-006 -3 8.02919 -4.95144 0.697662 -63.6921 -4.67676 3.22261 -125.684 42.0244 24.6776 -1.07811e-005 2.88116e-006 2.97338e-006 168.513 83.7948 -162.832 6.1478e-006 1.36873e-006 3.00194 -8.02898 -4.95146 -0.697668 172.607 -0.00713265 4.05946 180 7.01567e-015 179.012 178.474 10.488 179.635 4.2041e-006 6.49167e-006 -0.0106372 -16.6152 68.3589 19.7978 8.13649 25.2327 -3.48773 -173.562 -0.559341 -1.68738 4.54188e-006 -4.6773e-006 -0.972947 -1.33397 -11.7596 0.43806 5.314e-006 -2.06126e-007 -0.106278 18.3631 70.4507 -21.6358 -8.1366 25.2342 3.48569 
53.036 96.1464 9.07909 -0.107774 -4.91381 1.41832 0.279729 -1.54574 0.118373 0.553688 0.933096 0.208846 0.551477 2.57812 0.199677 -7.63186 13.7398 0.779459 -2.86899 -3.69548 -1.69199 58.8193 -9.62095 -5.98186 123.208 28.3387 -36.3073 -1.49389e-006 -9.42254e-006 -3.86711e-006 -172.913 64.939 156.746 -6.68363e-006 3.17603e-006 -3 8.02919 -4.95144 0.697662 -63.6801 -4.68442 3.22614 -125.801 42.0071 25.0034 -1.07811e-005 2.88116e-006 2.97338e-006 168.047 83.8152 -162.328 6.1478e-006 1.36873e-006 3.00194 -8.02898 -4.95146 -0.697668 172.61 -0.0150554 4.05826 180 7.01567e-015 179.012 178.474 10.4846 179.635 4.2041e-006 6.49167e-006 -0.0103975 -16.6179 68.3594 19.7986 8.13649 25.2327 -3.48773 -173.561 -0.567401 -1.68872 4.54188e-006 -4.6773e-006 -0.973075 -1.33354 -11.7581 0.438031 5.314e-006 -2.06126e-007 -0.106262 18.3673 70.453 -21.6374 -8.1366 25.2342 3.48569 
53.0348 96.1477 9.08324 -0.10885 -4.91785 1.41563 0.279768 -1.54591 0.117923 0.553504 0.933289 0.207976 0.551304 2.57832 0.198804 -7.6257 13.7411 0.7728 -2.85425 -3.66959 -1.69445 58.821 -9.61596 -5.97873 123.341 28.3295 -36.6281 -1.49389e-006 -9.42254e-006 -3.86711e-006 -172.836 64.9909 156.628 -6.68363e-006 3.17603e-006 -3 8.02919 -4.95144 0.697662 -63.6678 -4.69255 3.22992 -125.92 41.9931 25.3265 -1.07811e-005 2.88116e-006 2.97338e-006 167.624 83.8303 -161.867 6.1478e-006 1.36873e-006 3.00194 -8.02898 -4.95146 -0.697668 172.612 -0.0219718 4.05684 180 7.01567e-015 179.012 178.475 10.4825 179.634 4.20411e-006 6.49167e-006 -0.0101619 -16.6204 68.3604 19.7998 8.13649 25.2327 -3.48773 -173.559 -0.574688 -1.69016 4.54188e-006 -4.6773e-006 -0.973202 -1.33316 -11.7577 0.437968 5.314e-006 -2.06126e-007 -0.106246 18.3716 70.456 -21.6396 -8.1366 25.2342 3.48569 
53.0336 96.1472 9.07922 -0.110064 -4.92157 1.41258 0.279773 -1.54596 0.117465 0.553429 0.933343 0.207048 0.551241 2.57837 0.197874 -7.61949 13.7434 0.765864 -2.84096 -3.64593 -1.6975 58.8218 -9.60974 -5.97482 123.471 28.3164 -36.957 -1.49389e-006 -9.42254e-006 -3.86711e-006 -172.754 65.0456 156.503 -6.68363e-006 3.17603e-006 -3 8.02919 -4.95144 0.697662 -63.655 -4.70149 3.23413 -126.042 41.9824 25.6451 -1.07811e-005 2.88116e-006 2.97338e-006 167.252 83.84 -161.459 6.1478e-006 1.36873e-006 3.00193 -8.02898 -4.95146 -0.697668 172.615 -0.0278634 4.0551 180 7.01567e-015 179.012 178.477 10.4815 179.634 4.20411e-006 6.49167e-006 -0.00992565 -16.6227 68.3618 19.8013 8.13649 25.2327 -3.48773 -173.557 -0.581078 -1.69179 4.54188e-006 -4.6773e-006 -0.973329 -1.33287 -11.7587 0.437862 5.314e-006 -2.06126e-007 -0.106221 18.3763 70.4595 -21.6427 -8.1366 25.2342 3.48569 
53.0321 96.1483 9.08599 -0.111475 -4.92496 1.40925 0.279764 -1.5459 0.116989 0.55349 0.933252 0.206033 0.551316 2.57828 0.196853 -7.61343 13.7467 0.75857 -2.82872 -3.62444 -1.7012 58.8221 -9.60244 -5.97022 123.599 28.2981 -37.2947 -1.49389e-006 -9.42254e-006 -3.86711e-006 -172.667 65.103 156.371 -6.68363e-006 3.17603e-006 -3 8.02919 -4.95144 0.697662 -63.6415 -4.71154 3.23891 -126.166 41.9747 25.9591 -1.07811e-005 2.88116e-006 2.97338e-006 166.93 83.845 -161.102 6.1478e-006 1.36873e-006 3.00193 -8.02898 -4.95146 -0.697668 172.618 -0.0329065 4.05296 180 7.01566e-015 179.011 178.478 10.4811 179.634 4.20411e-006 6.49167e-006 -0.00968399 -16.6248 68.3636 19.803 8.13649 25.2327 -3.48773 -173.555 -0.586598 -1.69368 4.54188e-006 -4.6773e-006 -0.973457 -1.33267 -11.761 0.43771 5.314e-006 -2.06126e-007 -0.10618 18.3813 70.4636 -21.6463 -8.1366 25.2342 3.48569 
53.027 96.1435 9.09294 -0.11307 -4.92808 1.40565 0.279746 -1.54574 0.1165 0.553675 0.933041 0.204947 0.551516 2.57807 0.195757 -7.6075 13.7508 0.750985 -2.81744 -3.60489 -1.70547 58.8218 -9.59419 -5.96502 123.726 28.2752 -37.6409 -1.49389e-006 -9.42254e-006 -3.86711e-006 -172.574 65.1631 156.23 -6.68363e-006 3.17603e-006 -3 8.02919 -4.95144 0.697662 -63.6274 -4.72256 3.2442 -126.293 41.9694 26.2696 -1.07811e-005 2.88116e-006 2.97338e-006 166.652 83.8459 -160.79 6.1478e-006 1.36873e-006 3.00192 -8.02898 -4.95146 -0.697668 172.622 -0.0372286 4.05046 180 7.01566e-015 179.011 178.48 10.4815 179.634 4.20411e-006 6.49167e-006 -0.00943799 -16.6267 68.3656 19.805 8.13649 25.2327 -3.48773 -173.552 -0.591376 -1.6958 4.54188e-006 -4.6773e-006 -0.973585 -1.33256 -11.7643 0.437519 5.314e-006 -2.06126e-007 -0.106127 18.3865 70.4682 -21.6507 -8.1366 25.2342 3.48569 
53.0268 96.1453 9.09592 -0.114833 -4.93099 1.40179 0.279723 -1.54551 0.116 0.55397 0.932733 0.203804 0.551827 2.57776 0.194601 -7.60167 13.7556 0.743173 -2.80707 -3.58705 -1.71022 58.8208 -9.5851 -5.95929 123.852 28.2483 -37.9952 -1.49389e-006 -9.42254e-006 -3.86711e-006 -172.476 65.226 156.084 -6.68363e-006 3.17603e-006 -3 8.02919 -4.95144 0.697662 -63.6127 -4.73442 3.24993 -126.421 41.9661 26.5781 -1.07811e-005 2.88116e-006 2.97338e-006 166.411 83.8434 -160.514 6.1478e-006 1.36873e-006 3.00192 -8.02898 -4.95146 -0.697668 172.625 -0.0409575 4.04766 180 7.01566e-015 179.011 178.482 10.4825 179.634 4.2041e-006 6.49167e-006 -0.00918871 -16.6284 68.3679 19.8071 8.13649 25.2327 -3.48773 -173.55 -0.59554 -1.69813 4.54188e-006 -4.6773e-006 -0.973713 -1.33252 -11.7686 0.437294 5.314e-006 -2.06126e-007 -0.106065 18.3921 70.4732 -21.6555 -8.1366 25.2342 3.48569 
53.0219 96.1493 9.09859 -0.116752 -4.93375 1.39769 0.2797 -1.5452 0.115494 0.554362 0.932351 0.202621 0.552236 2.57738 0.193402 -7.59593 13.761 0.735202 -2.79752 -3.5707 -1.71534 58.8192 -9.57528 -5.9531 123.975 28.2181 -38.3572 -1.49389e-006 -9.42254e-006 -3.86711e-006 -172.373 65.2916 155.931 -6.68363e-006 3.17603e-006 -3 8.02919 -4.95144 0.697662 -63.5976 -4.74697 3.25602 -126.551 41.9643 26.8859 -1.07811e-005 2.88116e-006 2.97338e-006 166.197 83.8381 -160.266 6.1478e-006 1.36873e-006 3.00192 -8.02898 -4.95146 -0.697668 172.629 -0.0442207 4.0446 180 7.01566e-015 179.011 178.485 10.4839 179.634 4.20411e-006 6.49167e-006 -0.0089372 -16.6299 68.3704 19.8094 8.13649 25.2327 -3.48773 -173.547 -0.599217 -1.70063 4.54188e-006 -4.6773e-006 -0.973842 -1.33252 -11.7736 0.437044 5.314e-006 -2.06126e-007 -0.105999 18.3978 70.4786 -21.6608 -8.1366 25.2342 3.48569 
